<svg width="50" height="50" viewBox="0 0 50 50" fill="none" xmlns="http://www.w3.org/2000/svg">
<path d="M50 43.75C50 45.4076 49.3415 46.9973 48.1694 48.1694C46.9973 49.3415 45.4076 50 43.75 50H6.25C4.5924 50 3.00269 49.3415 1.83059 48.1694C0.658482 46.9973 0 45.4076 0 43.75V6.25C0 4.5924 0.658482 3.00269 1.83059 1.83058C3.00269 0.65848 4.5924 0 6.25 0L43.75 0C45.4076 0 46.9973 0.65848 48.1694 1.83058C49.3415 3.00269 50 4.5924 50 6.25V43.75ZM35.9375 23.4375H17.8344L24.5438 16.7313C24.8371 16.4379 25.002 16.0399 25.002 15.625C25.002 15.2101 24.8371 14.8121 24.5438 14.5187C24.2504 14.2254 23.8524 14.0605 23.4375 14.0605C23.0226 14.0605 22.6246 14.2254 22.3312 14.5187L12.9562 23.8937C12.8107 24.0389 12.6953 24.2113 12.6165 24.4011C12.5378 24.591 12.4972 24.7945 12.4972 25C12.4972 25.2055 12.5378 25.409 12.6165 25.5989C12.6953 25.7887 12.8107 25.9611 12.9562 26.1063L22.3312 35.4813C22.6246 35.7746 23.0226 35.9395 23.4375 35.9395C23.8524 35.9395 24.2504 35.7746 24.5438 35.4813C24.8371 35.1879 25.002 34.7899 25.002 34.375C25.002 33.9601 24.8371 33.5621 24.5438 33.2687L17.8344 26.5625H35.9375C36.3519 26.5625 36.7493 26.3979 37.0424 26.1049C37.3354 25.8118 37.5 25.4144 37.5 25C37.5 24.5856 37.3354 24.1882 37.0424 23.8951C36.7493 23.6021 36.3519 23.4375 35.9375 23.4375Z" fill="#EB2F5B"/>
</svg>
