<svg width="162" height="162" viewBox="0 0 162 162" fill="none" xmlns="http://www.w3.org/2000/svg">
<circle cx="81" cy="81" r="81" fill="white" fill-opacity="0.6"/>
<path d="M81 23C48.9705 23 23 48.9705 23 81C23 113.029 48.9705 139 81 139C113.029 139 139 113.029 139 81C139 48.9705 113.029 23 81 23ZM99.6558 81.8933L71.3808 102.465C71.2258 102.577 71.0431 102.643 70.8527 102.657C70.6624 102.672 70.4718 102.633 70.3019 102.546C70.1319 102.459 69.9893 102.327 69.8896 102.164C69.7898 102.002 69.7369 101.815 69.7366 101.624V60.5058C69.736 60.3145 69.7883 60.1268 69.8878 59.9635C69.9874 59.8002 70.1302 59.6676 70.3004 59.5804C70.4707 59.4933 70.6618 59.455 70.8525 59.4698C71.0432 59.4846 71.226 59.5519 71.3808 59.6643L99.6558 80.2232C99.7894 80.3177 99.8984 80.4428 99.9736 80.5881C100.049 80.7334 100.088 80.8946 100.088 81.0583C100.088 81.2219 100.049 81.3831 99.9736 81.5284C99.8984 81.6737 99.7894 81.7988 99.6558 81.8933V81.8933Z" fill="#EB2F5B"/>
</svg>
